<svg width="94" height="36" viewBox="0 0 94 36" fill="none" xmlns="http://www.w3.org/2000/svg">
<path d="M87.0681 20.7141C87.0946 19.9325 87.0049 19.2744 86.8138 18.5347C85.883 14.8852 82.5053 11.8455 78.1089 11.2155C72.4071 10.3989 67.2368 13.844 66.4765 18.8506C65.7155 23.8606 69.7391 28.2866 75.3471 29.3995C79.9901 30.3212 84.3876 28.0993 86.4829 23.9088L81.5645 22.5346C80.9003 25.5518 79.9918 28.657 77.0784 28.657C73.7668 28.657 71.609 23.7733 71.5843 20.6957L87.0681 20.7135V20.7141ZM76.2573 11.9822C79.3943 11.9816 81.3686 15.8637 81.7591 18.514L71.8143 18.5158C71.8143 15.2487 73.9043 11.9822 76.2579 11.9822H76.2573Z" fill="black"/>
<path d="M41.801 19.2119C41.2135 14.1387 36.088 10.5409 30.3549 11.1709C24.6219 11.8008 20.4508 16.4221 21.0383 21.4918C21.6259 26.565 26.7507 30.1651 32.4844 29.5352C38.2175 28.9052 42.392 24.2822 41.801 19.2119ZM34.5749 28.0794C34.2729 28.231 33.9078 28.3901 33.5692 28.4193C30.0334 28.7203 27.6108 24.8577 26.6115 21.9231C25.3114 18.107 25.8642 13.5673 28.7852 12.436C32.2691 11.2375 35.2191 15.3217 36.2443 18.428C37.4429 22.0586 37.2512 26.7361 34.5749 28.0794Z" fill="black"/>
<path d="M6.88905 33.0627C6.8849 33.0396 6.88135 33.02 6.8772 32.9981C6.88431 33.0384 6.88905 33.0627 6.88905 33.0627Z" fill="black"/>
<path d="M6.87827 32.9982C6.8759 32.9838 6.87294 32.967 6.86938 32.9486C6.87235 32.9653 6.87531 32.9809 6.87827 32.9982Z" fill="black"/>
<path d="M20.5391 11.0992L13.7808 22.5779C13.313 22.2138 7.65784 11.0987 7.65784 11.0987H1.00162C2.19436 13.1213 8.01118 22.7456 10.0132 26.2504C11.0278 28.1588 10.5536 28.9432 9.87815 29.7553C8.115 31.8767 4.43237 29.5956 2.92758 28.47L0 33.4726C5.06413 36.615 8.76682 35.0421 11.5493 30.6288C12.8222 28.6096 22.9694 11.2606 23.0655 11.0998H20.5391V11.0992Z" fill="black"/>
<path d="M92.4728 14.8032C92.4728 14.7527 92.4728 14.7016 92.4728 14.651C92.4728 7.60231 93.9976 0.043071 93.9976 0H87.5255C87.5255 0.0379025 89.0503 7.56384 89.0503 14.651C89.0503 14.7016 89.0503 14.7527 89.0503 14.8032C89.0503 14.8537 89.0503 14.9049 89.0503 14.9554C89.0503 22.0041 87.5237 29.5633 87.5237 29.6064H94C94 29.5685 92.4734 22.0426 92.4734 14.9554C92.4734 14.9049 92.4734 14.8537 92.4734 14.8032H92.4728Z" fill="black"/>
<path d="M56.1837 11.5671C52.9872 10.8189 49.6313 11.3391 47.2523 13.0482L47.234 13.1567C47.3998 6.50946 48.7506 0.0407738 48.7506 0H42.2437C42.2437 0.0379025 43.7768 7.36858 43.7768 14.4558C43.7768 14.5063 43.7768 14.5574 43.7768 14.6079C43.7768 14.6585 43.7768 14.7096 43.7768 14.7601C43.7768 15.4361 43.7626 16.1166 43.7372 16.7942H43.7697C43.726 21.3092 43.5225 25.9362 43.1267 28.2655C43.1462 28.2764 46.0083 29.6064 51.7301 29.6064C57.452 29.6064 62.9414 27.504 64.1778 22.4486C65.4124 17.4007 61.9262 12.911 56.1849 11.5671H56.1837ZM58.8093 21.6119C57.882 25.1799 54.3893 29.8017 50.607 28.1701C48.5743 27.3897 47.5945 23.9727 48.5442 20.1808C49.5541 16.1482 53.1624 11.311 56.6055 12.7031C59.7366 13.7304 59.6422 18.4091 58.8093 21.6119Z" fill="black"/>
</svg>
