<svg width="83" height="84" viewBox="0 0 83 84" fill="none" xmlns="http://www.w3.org/2000/svg">
<path d="M15.69 0.75H66.56M0.75 34.77C14.93 20.59 15.67 0.759979 15.67 0.759979M0.75 34.77H30.58C30.58 34.77 27.13 45.15 15.67 45.15C4.2 45.15 0.75 34.77 0.75 34.77ZM15.66 0.75C15.66 0.75 16.39 20.58 30.58 34.76M51.67 34.77C65.85 20.59 66.59 0.759979 66.59 0.759979M51.67 34.77H81.5C81.5 34.77 78.06 45.15 66.59 45.15C55.12 45.15 51.67 34.77 51.67 34.77ZM66.59 0.75C66.59 0.75 67.32 20.58 81.51 34.76M59.69 81.16V82.34H22.56V81.16C34.41 76.19 39.82 67.4 39.82 0.75H42.42C42.43 67.4 47.84 76.19 59.69 81.16Z" stroke="url(#paint0_linear_2772_9218)" stroke-width="1.5" stroke-miterlimit="10" stroke-linecap="round" stroke-linejoin="round"/>
<defs>
<linearGradient id="paint0_linear_2772_9218" x1="-0.00459997" y1="41.5446" x2="82.2528" y2="41.5446" gradientUnits="userSpaceOnUse">
<stop stop-color="#F2E465"/>
<stop offset="1" stop-color="#59C2E7"/>
</linearGradient>
</defs>
</svg>
