<svg width="77" height="84" viewBox="0 0 77 84" fill="none" xmlns="http://www.w3.org/2000/svg">
<path d="M49.5 45.4H26.95M51.21 40.4C42.37 30.86 41.23 19.16 41.23 19.16H35.21C35.21 19.16 34.08 30.86 25.23 40.4M38.22 82.33C52.34 72.52 53.94 56.09 53.94 56.09H59.97C59.97 56.09 61.57 72.52 75.69 82.33H38.22ZM38.22 82.33H0.75C14.87 72.52 16.47 56.09 16.47 56.09H22.5C22.5 56.09 24.1 72.52 38.22 82.33ZM45.7 8.22998C45.7 12.36 42.35 15.71 38.22 15.71C34.09 15.71 30.74 12.36 30.74 8.22998C30.74 4.09998 34.09 0.75 38.22 0.75C42.35 0.75 45.7 4.09998 45.7 8.22998ZM56.96 37.6899C52.83 37.6899 49.48 41.04 49.48 45.17C49.48 49.3 52.83 52.65 56.96 52.65C61.09 52.65 64.44 49.3 64.44 45.17C64.44 41.04 61.08 37.6899 56.96 37.6899ZM19.49 37.6899C15.36 37.6899 12.01 41.04 12.01 45.17C12.01 49.3 15.36 52.65 19.49 52.65C23.62 52.65 26.97 49.3 26.97 45.17C26.97 41.04 23.62 37.6899 19.49 37.6899Z" stroke="url(#paint0_linear_2772_9221)" stroke-width="1.5" stroke-miterlimit="10" stroke-linecap="round" stroke-linejoin="round"/>
<defs>
<linearGradient id="paint0_linear_2772_9221" x1="0.00640011" y1="41.5464" x2="76.4389" y2="41.5464" gradientUnits="userSpaceOnUse">
<stop stop-color="#F2E465"/>
<stop offset="1" stop-color="#59C2E7"/>
</linearGradient>
</defs>
</svg>
